<svg id="visual" viewBox="0 0 900 113" width="900" height="113" xmlns="http://www.w3.org/2000/svg" xmlns:xlink="http://www.w3.org/1999/xlink" version="1.1"><path d="M0 31L39 32L78 38L117 31L157 34L196 34L235 38L274 30L313 38L352 40L391 32L430 39L470 30L509 38L548 31L587 39L626 44L665 34L704 36L743 30L783 34L822 32L861 38L900 37L900 0L861 0L822 0L783 0L743 0L704 0L665 0L626 0L587 0L548 0L509 0L470 0L430 0L391 0L352 0L313 0L274 0L235 0L196 0L157 0L117 0L78 0L39 0L0 0Z" fill="#ffffff"></path><path d="M0 30L39 28L78 36L117 23L157 23L196 26L235 32L274 30L313 31L352 31L391 30L430 30L470 32L509 33L548 22L587 30L626 24L665 30L704 29L743 22L783 24L822 31L861 22L900 35L900 0L861 0L822 0L783 0L743 0L704 0L665 0L626 0L587 0L548 0L509 0L470 0L430 0L391 0L352 0L313 0L274 0L235 0L196 0L157 0L117 0L78 0L39 0L0 0Z" fill="#f2f2f2"></path><path d="M0 27L39 27L78 17L117 16L157 25L196 15L235 22L274 18L313 20L352 21L391 17L430 15L470 19L509 18L548 29L587 24L626 16L665 19L704 24L743 26L783 27L822 15L861 18L900 27L900 0L861 0L822 0L783 0L743 0L704 0L665 0L626 0L587 0L548 0L509 0L470 0L430 0L391 0L352 0L313 0L274 0L235 0L196 0L157 0L117 0L78 0L39 0L0 0Z" fill="#e5e5e5"></path><path d="M0 7L39 21L78 20L117 14L157 14L196 13L235 10L274 8L313 21L352 21L391 11L430 19L470 21L509 20L548 17L587 16L626 11L665 19L704 7L743 18L783 22L822 19L861 20L900 15L900 0L861 0L822 0L783 0L743 0L704 0L665 0L626 0L587 0L548 0L509 0L470 0L430 0L391 0L352 0L313 0L274 0L235 0L196 0L157 0L117 0L78 0L39 0L0 0Z" fill="#d8d8d8"></path><path d="M0 11L39 12L78 1L117 7L157 13L196 10L235 9L274 9L313 11L352 7L391 12L430 12L470 10L509 5L548 8L587 1L626 13L665 1L704 5L743 10L783 14L822 12L861 12L900 1L900 0L861 0L822 0L783 0L743 0L704 0L665 0L626 0L587 0L548 0L509 0L470 0L430 0L391 0L352 0L313 0L274 0L235 0L196 0L157 0L117 0L78 0L39 0L0 0Z" fill="#cccccc"></path></svg>